<mxfile host="app.diagrams.net" agent="Mozilla/5.0 (Windows NT 10.0; Win64; x64) AppleWebKit/537.36 (KHTML, like Gecko) Chrome/129.0.0.0 Safari/537.36" version="24.7.17">
  <diagram name="P치gina-1" id="YWYdd-1dtY6KsthXSxwD">
    <mxGraphModel dx="1050" dy="530" grid="1" gridSize="10" guides="1" tooltips="1" connect="1" arrows="1" fold="1" page="1" pageScale="1" pageWidth="827" pageHeight="1169" math="0" shadow="0">
      <root>
        <mxCell id="0" />
        <mxCell id="1" parent="0" />
        <mxCell id="J_iwqUdwDPk7H4zpnTmJ-1" value="Interfaz de usuario" style="html=1;whiteSpace=wrap;fillColor=#cdeb8b;strokeColor=#36393d;" vertex="1" parent="1">
          <mxGeometry x="240" y="80" width="110" height="20" as="geometry" />
        </mxCell>
        <mxCell id="J_iwqUdwDPk7H4zpnTmJ-2" value="&lt;u&gt;Gesti칩n de historial de transacciones&lt;/u&gt;" style="html=1;whiteSpace=wrap;fillColor=#cdeb8b;strokeColor=#36393d;" vertex="1" parent="1">
          <mxGeometry x="490" y="80" width="140" height="30" as="geometry" />
        </mxCell>
        <mxCell id="J_iwqUdwDPk7H4zpnTmJ-3" value="Cliente" style="shape=umlActor;verticalLabelPosition=bottom;verticalAlign=top;html=1;outlineConnect=0;" vertex="1" parent="1">
          <mxGeometry x="40" y="60" width="30" height="60" as="geometry" />
        </mxCell>
        <mxCell id="J_iwqUdwDPk7H4zpnTmJ-4" value="" style="html=1;points=[[0,0,0,0,5],[0,1,0,0,-5],[1,0,0,0,5],[1,1,0,0,-5]];perimeter=orthogonalPerimeter;outlineConnect=0;targetShapes=umlLifeline;portConstraint=eastwest;newEdgeStyle={&quot;curved&quot;:0,&quot;rounded&quot;:0};" vertex="1" parent="1">
          <mxGeometry x="50" y="170" width="10" height="280" as="geometry" />
        </mxCell>
        <mxCell id="J_iwqUdwDPk7H4zpnTmJ-5" value="" style="html=1;points=[[0,0,0,0,5],[0,1,0,0,-5],[1,0,0,0,5],[1,1,0,0,-5]];perimeter=orthogonalPerimeter;outlineConnect=0;targetShapes=umlLifeline;portConstraint=eastwest;newEdgeStyle={&quot;curved&quot;:0,&quot;rounded&quot;:0};" vertex="1" parent="1">
          <mxGeometry x="290" y="170" width="10" height="280" as="geometry" />
        </mxCell>
        <mxCell id="J_iwqUdwDPk7H4zpnTmJ-6" value="" style="html=1;points=[[0,0,0,0,5],[0,1,0,0,-5],[1,0,0,0,5],[1,1,0,0,-5]];perimeter=orthogonalPerimeter;outlineConnect=0;targetShapes=umlLifeline;portConstraint=eastwest;newEdgeStyle={&quot;curved&quot;:0,&quot;rounded&quot;:0};" vertex="1" parent="1">
          <mxGeometry x="550" y="170" width="10" height="280" as="geometry" />
        </mxCell>
        <mxCell id="J_iwqUdwDPk7H4zpnTmJ-7" value="1 inicia consulta" style="html=1;verticalAlign=bottom;endArrow=block;curved=0;rounded=0;" edge="1" parent="1" target="J_iwqUdwDPk7H4zpnTmJ-5">
          <mxGeometry width="80" relative="1" as="geometry">
            <mxPoint x="60" y="180" as="sourcePoint" />
            <mxPoint x="140" y="180" as="targetPoint" />
          </mxGeometry>
        </mxCell>
        <mxCell id="J_iwqUdwDPk7H4zpnTmJ-8" value="2 solicita detalles" style="html=1;verticalAlign=bottom;endArrow=block;curved=0;rounded=0;" edge="1" parent="1">
          <mxGeometry width="80" relative="1" as="geometry">
            <mxPoint x="300" y="200" as="sourcePoint" />
            <mxPoint x="550" y="200" as="targetPoint" />
          </mxGeometry>
        </mxCell>
        <mxCell id="J_iwqUdwDPk7H4zpnTmJ-9" value="3 proporciona detalles" style="html=1;verticalAlign=bottom;endArrow=open;dashed=1;endSize=8;curved=0;rounded=0;" edge="1" parent="1">
          <mxGeometry relative="1" as="geometry">
            <mxPoint x="550" y="230" as="sourcePoint" />
            <mxPoint x="300" y="230" as="targetPoint" />
          </mxGeometry>
        </mxCell>
        <mxCell id="J_iwqUdwDPk7H4zpnTmJ-10" value="" style="endArrow=none;dashed=1;html=1;dashPattern=1 3;strokeWidth=2;rounded=0;entryX=0.5;entryY=1;entryDx=0;entryDy=0;" edge="1" parent="1" source="J_iwqUdwDPk7H4zpnTmJ-5" target="J_iwqUdwDPk7H4zpnTmJ-1">
          <mxGeometry width="50" height="50" relative="1" as="geometry">
            <mxPoint x="295" y="150" as="sourcePoint" />
            <mxPoint x="390" y="260" as="targetPoint" />
          </mxGeometry>
        </mxCell>
        <mxCell id="J_iwqUdwDPk7H4zpnTmJ-11" value="" style="endArrow=none;dashed=1;html=1;dashPattern=1 3;strokeWidth=2;rounded=0;entryX=0.5;entryY=1;entryDx=0;entryDy=0;" edge="1" parent="1" source="J_iwqUdwDPk7H4zpnTmJ-4">
          <mxGeometry width="50" height="50" relative="1" as="geometry">
            <mxPoint x="54.5" y="215" as="sourcePoint" />
            <mxPoint x="54.5" y="140" as="targetPoint" />
          </mxGeometry>
        </mxCell>
        <mxCell id="J_iwqUdwDPk7H4zpnTmJ-12" value="" style="endArrow=none;dashed=1;html=1;dashPattern=1 3;strokeWidth=2;rounded=0;entryX=0.5;entryY=1;entryDx=0;entryDy=0;exitX=1;exitY=0;exitDx=0;exitDy=5;exitPerimeter=0;" edge="1" parent="1" source="J_iwqUdwDPk7H4zpnTmJ-6">
          <mxGeometry width="50" height="50" relative="1" as="geometry">
            <mxPoint x="559" y="160" as="sourcePoint" />
            <mxPoint x="559" y="100" as="targetPoint" />
          </mxGeometry>
        </mxCell>
        <mxCell id="J_iwqUdwDPk7H4zpnTmJ-13" value="11 muestra historial" style="html=1;verticalAlign=bottom;endArrow=block;curved=0;rounded=0;entryX=1;entryY=1;entryDx=0;entryDy=-5;entryPerimeter=0;" edge="1" parent="1">
          <mxGeometry width="80" relative="1" as="geometry">
            <mxPoint x="290" y="440" as="sourcePoint" />
            <mxPoint x="60" y="440" as="targetPoint" />
          </mxGeometry>
        </mxCell>
        <mxCell id="J_iwqUdwDPk7H4zpnTmJ-14" value="&lt;u&gt;Servicio de cuenta&lt;/u&gt;" style="html=1;whiteSpace=wrap;fillColor=#cdeb8b;strokeColor=#36393d;" vertex="1" parent="1">
          <mxGeometry x="750" y="80" width="110" height="20" as="geometry" />
        </mxCell>
        <mxCell id="J_iwqUdwDPk7H4zpnTmJ-15" value="" style="html=1;points=[[0,0,0,0,5],[0,1,0,0,-5],[1,0,0,0,5],[1,1,0,0,-5]];perimeter=orthogonalPerimeter;outlineConnect=0;targetShapes=umlLifeline;portConstraint=eastwest;newEdgeStyle={&quot;curved&quot;:0,&quot;rounded&quot;:0};" vertex="1" parent="1">
          <mxGeometry x="810" y="170" width="10" height="280" as="geometry" />
        </mxCell>
        <mxCell id="J_iwqUdwDPk7H4zpnTmJ-16" value="" style="endArrow=none;dashed=1;html=1;dashPattern=1 3;strokeWidth=2;rounded=0;exitX=1;exitY=0;exitDx=0;exitDy=0;exitPerimeter=0;" edge="1" parent="1" source="J_iwqUdwDPk7H4zpnTmJ-15">
          <mxGeometry width="50" height="50" relative="1" as="geometry">
            <mxPoint x="812" y="170" as="sourcePoint" />
            <mxPoint x="820" y="101" as="targetPoint" />
          </mxGeometry>
        </mxCell>
        <mxCell id="J_iwqUdwDPk7H4zpnTmJ-17" value="4 valida informaci칩n" style="html=1;verticalAlign=bottom;endArrow=block;curved=0;rounded=0;" edge="1" parent="1">
          <mxGeometry width="80" relative="1" as="geometry">
            <mxPoint x="560" y="250" as="sourcePoint" />
            <mxPoint x="810" y="250" as="targetPoint" />
          </mxGeometry>
        </mxCell>
        <mxCell id="J_iwqUdwDPk7H4zpnTmJ-18" value="5 informaci칩n validada" style="html=1;verticalAlign=bottom;endArrow=open;dashed=1;endSize=8;curved=0;rounded=0;" edge="1" parent="1">
          <mxGeometry relative="1" as="geometry">
            <mxPoint x="810" y="280" as="sourcePoint" />
            <mxPoint x="560" y="280" as="targetPoint" />
          </mxGeometry>
        </mxCell>
        <mxCell id="J_iwqUdwDPk7H4zpnTmJ-19" value="9 historial de transacciones" style="html=1;verticalAlign=bottom;endArrow=open;dashed=1;endSize=8;curved=0;rounded=0;" edge="1" parent="1">
          <mxGeometry relative="1" as="geometry">
            <mxPoint x="810" y="390" as="sourcePoint" />
            <mxPoint x="560" y="390" as="targetPoint" />
            <Array as="points" />
          </mxGeometry>
        </mxCell>
        <mxCell id="J_iwqUdwDPk7H4zpnTmJ-20" value="10 envia respuesta" style="html=1;verticalAlign=bottom;endArrow=block;curved=0;rounded=0;" edge="1" parent="1">
          <mxGeometry width="80" relative="1" as="geometry">
            <mxPoint x="300" y="420" as="sourcePoint" />
            <mxPoint x="550" y="420" as="targetPoint" />
          </mxGeometry>
        </mxCell>
        <mxCell id="J_iwqUdwDPk7H4zpnTmJ-21" value="&lt;u&gt;Base de Datos&lt;/u&gt;" style="html=1;whiteSpace=wrap;fillColor=#cdeb8b;strokeColor=#36393d;" vertex="1" parent="1">
          <mxGeometry x="1000" y="80" width="110" height="20" as="geometry" />
        </mxCell>
        <mxCell id="J_iwqUdwDPk7H4zpnTmJ-22" value="" style="html=1;points=[[0,0,0,0,5],[0,1,0,0,-5],[1,0,0,0,5],[1,1,0,0,-5]];perimeter=orthogonalPerimeter;outlineConnect=0;targetShapes=umlLifeline;portConstraint=eastwest;newEdgeStyle={&quot;curved&quot;:0,&quot;rounded&quot;:0};" vertex="1" parent="1">
          <mxGeometry x="1050" y="170" width="10" height="280" as="geometry" />
        </mxCell>
        <mxCell id="J_iwqUdwDPk7H4zpnTmJ-23" value="7 consulta historial" style="html=1;verticalAlign=bottom;endArrow=block;curved=0;rounded=0;" edge="1" parent="1">
          <mxGeometry width="80" relative="1" as="geometry">
            <mxPoint x="820" y="340" as="sourcePoint" />
            <mxPoint x="1050" y="340" as="targetPoint" />
          </mxGeometry>
        </mxCell>
        <mxCell id="J_iwqUdwDPk7H4zpnTmJ-24" value="8 historial de transacciones" style="html=1;verticalAlign=bottom;endArrow=open;dashed=1;endSize=8;curved=0;rounded=0;" edge="1" parent="1">
          <mxGeometry relative="1" as="geometry">
            <mxPoint x="1050" y="370" as="sourcePoint" />
            <mxPoint x="820" y="370" as="targetPoint" />
            <Array as="points">
              <mxPoint x="950" y="370" />
            </Array>
          </mxGeometry>
        </mxCell>
        <mxCell id="J_iwqUdwDPk7H4zpnTmJ-26" value="" style="endArrow=none;dashed=1;html=1;dashPattern=1 3;strokeWidth=2;rounded=0;" edge="1" parent="1">
          <mxGeometry width="50" height="50" relative="1" as="geometry">
            <mxPoint x="1055" y="170" as="sourcePoint" />
            <mxPoint x="1055" y="101" as="targetPoint" />
          </mxGeometry>
        </mxCell>
        <mxCell id="J_iwqUdwDPk7H4zpnTmJ-27" value="6 obtener historial" style="html=1;verticalAlign=bottom;endArrow=block;curved=0;rounded=0;" edge="1" parent="1">
          <mxGeometry width="80" relative="1" as="geometry">
            <mxPoint x="560" y="310" as="sourcePoint" />
            <mxPoint x="810" y="310" as="targetPoint" />
          </mxGeometry>
        </mxCell>
      </root>
    </mxGraphModel>
  </diagram>
</mxfile>
